<svg height="72" viewBox="0 0 72 72" width="72" xmlns="http://www.w3.org/2000/svg" xmlns:xlink="http://www.w3.org/1999/xlink"><defs><path id="a" d="m36 72c19.882251 0 36-16.117749 36-36s-16.117749-36-36-36-36 16.117749-36 36 16.117749 36 36 36z"/><mask id="b" fill="#fff" height="72" width="72" x="0" y="0"><use xlink:href="#a"/></mask><mask id="c" fill="#fff"><circle cx="36" cy="36" fill="#fff" fill-rule="evenodd" r="31"/></mask></defs><g fill="none" fill-rule="evenodd"><use mask="url(#b)" stroke="#f7f3e3" stroke-dasharray="20 10" stroke-width="10" xlink:href="#a"/><path d="m36 67c17.1208272 0 31-13.8791728 31-31s-13.8791728-31-31-31-31 13.8791728-31 31 13.8791728 31 31 31z" fill="#00897b"/><path d="m29 67s13 2 14 2c.6666667 0 2.6666667-.6666667 6-2 0-2 0-3.6666667 0-5 0-2 0-4 0-4s-1-5-1-7c0-1.3333333 0-4.6666667 0-10 .6666667 3.3333333 1.3333333 6 2 8 1 3 2 9 2 10s2 5 2 5 3 0 4-2c.6666667-1.3333333.6666667-3.3333333 0-6s-1.3333333-5.3333333-2-8c-1-4-2-7-2-9s0-4-1-7-2-3-3-4-5-2-7-4-2-1-2-3 2-3 2-5c0-.4780582-.5228537-1.5029832-1-3-.5209294-1.6343835-1-3.73903313-1-4 0-1-3-2-5-2s-3 1-4 2-1 3-1 4-1 3-1 4 1 2 2 3 1 2 1 3-3 3-4 3-6 3-7 5-1 8-2 11-2 9-2 9-1 5-1 7-1 7 0 6 5 2 5 1 2-11 3-15 2-8 2-8-.3333333 3-1 9v7 6c0 2 3 3 3 3z" fill="#f7f3e3" mask="url(#c)"/></g></svg>